Coordinates
version=1
nRows=22
nColumns=24
inDegrees=yes

Units are S.I. units (second, meters, Newtons, ...)
Angles are in degrees.

endheader
time	pelvis_tilt	pelvis_list	pelvis_rotation	pelvis_tx	pelvis_ty	pelvis_tz	hip_flexion_r	hip_adduction_r	hip_rotation_r	knee_angle_r	ankle_angle_r	subtalar_angle_r	mtp_angle_r	hip_flexion_l	hip_adduction_l	hip_rotation_l	knee_angle_l	ankle_angle_l	subtalar_angle_l	mtp_angle_l	lumbar_extension	lumbar_bending	lumbar_rotation
      0.63383333	     -3.87363749	     -2.86015722	      6.70811976	     -0.45238331	      0.89265161	      0.31790893	     16.07541659	      8.17608585	     -4.16618202	    -29.50756074	     20.10632656	      1.02799006	      2.68576935	     26.04344483	     -6.01996340	     -3.88961825	    -78.53742720	      2.44731026	     -8.71042769	     -0.65568874	     -4.05659681	      3.45875231	      0.08287721
      0.63800000	     -3.95011769	     -2.66244581	      6.58546478	     -0.44687414	      0.89386341	      0.31808393	     15.41834250	      8.03517822	     -4.01287441	    -28.86103034	     20.06546373	      1.16225765	      2.70753142	     26.69634225	     -5.70400621	     -4.09698778	    -78.03319119	      2.71233783	     -8.71196055	     -0.67576249	     -3.98186516	      3.23847766	      0.22412022
      0.64216667	     -3.99667585	     -2.44801591	      6.44919140	     -0.44132245	      0.89513666	      0.31827621	     14.71502022	      7.88171625	     -3.84375129	    -28.19291940	     20.03106405	      1.28826642	      2.73286983	     27.27705297	     -5.38216805	     -4.31958452	    -77.43205790	      2.96191004	     -8.66694568	     -0.69152545	     -3.94324782	      2.98806927	      0.42842102
      0.64633333	     -4.01040313	     -2.23475729	      6.30779855	     -0.43573157	      0.89645278	      0.31849114	     13.95912022	      7.73588010	     -3.66349738	    -27.48778060	     20.02639083	      1.39220949	      2.77916125	     27.79377274	     -5.07554465	     -4.54552594	    -76.75249980	      3.19693125	     -8.57637650	     -0.71084396	     -3.93675781	      2.73877955	      0.73667260
      0.65050000	     -4.02533569	     -2.00770560	      6.14751645	     -0.43012940	      0.89776198	      0.31871086	     13.20319271	      7.57126775	     -3.47150070	    -26.77937194	     19.95882130	      1.50069287	      2.82146090	     28.27727277	     -4.75750898	     -4.78257097	    -75.98858155	      3.43531433	     -8.46419332	     -0.71896871	     -3.92707971	      2.47772071	      0.96756414
      0.65466667	     -4.04984896	     -1.76966780	      5.97387640	     -0.42453098	      0.89904213	      0.31893721	     12.46115079	      7.38931905	     -3.27582994	    -26.07072582	     19.83416024	      1.62682062	      2.84873538	     28.74277234	     -4.42814589	     -5.02207600	    -75.14592651	      3.66642294	     -8.32597535	     -0.71743176	     -3.91060719	      2.20526306	      1.14072312
      0.65883333	     -4.00420931	     -1.54726730	      5.80303277	     -0.41886811	      0.90039915	      0.31918014	     11.61426292	      7.23435441	     -3.07184990	    -25.30225612	     19.78082681	      1.70616078	      2.90082451	     29.10494554	     -4.13627504	     -5.25601641	    -74.23639995	      3.89843850	     -8.15135095	     -0.71034866	     -3.96174843	      1.95427993	      1.44710108
      0.66300000	     -3.97578831	     -1.31942056	      5.61676188	     -0.41322555	      0.90169825	      0.31943844	     10.79173029	      7.06789431	     -2.85267414	    -24.53553429	     19.65451387	      1.79466151	      2.95881740	     29.46214913	     -3.83836712	     -5.48904345	    -73.25800480	      4.12137769	     -7.96269325	     -0.69578260	     -4.00422876	      1.68882295	      1.71142848
      0.66716667	     -3.93816601	     -1.08281807	      5.42108786	     -0.40757097	      0.90297270	      0.31970178	      9.96300084	      6.88550910	     -2.64773983	    -23.77404498	     19.52778378	      1.87679320	      3.01029211	     29.78052005	     -3.53881348	     -5.72941849	    -72.20908291	      4.32803464	     -7.76203406	     -0.67700476	     -4.03833756	      1.42543125	      1.93815653
      0.67133333	     -3.88513100	     -0.85910499	      5.22060673	     -0.40191757	      0.90422336	      0.31997520	      9.11044779	      6.71675795	     -2.42941732	    -22.98578110	     19.37864182	      1.95709575	      3.07057648	     30.06320528	     -3.25649620	     -5.95413245	    -71.10319517	      4.53178512	     -7.55286041	     -0.65156443	     -4.10240700	      1.16976769	      2.19605923
      0.67550000	     -3.83049672	     -0.63708840	      5.01026376	     -0.39626803	      0.90541920	      0.32026452	      8.26011463	      6.54505530	     -2.20732083	    -22.19739240	     19.21348491	      2.02810927	      3.13816126	     30.32189514	     -2.98207206	     -6.17659473	    -69.93905881	      4.72271391	     -7.34056365	     -0.62106701	     -4.16363515	      0.91773933	      2.45137938
      0.67966667	     -3.76918978	     -0.41533991	      4.79438857	     -0.39061855	      0.90656760	      0.32054694	      7.40858230	      6.36530898	     -2.00360789	    -21.41537058	     19.04861185	      2.10112050	      3.20076857	     30.55106345	     -2.71238705	     -6.39833355	    -68.71555517	      4.89483162	     -7.13255310	     -0.59093072	     -4.22393571	      0.66836024	      2.68670326
      0.68383333	     -3.70925366	     -0.22003067	      4.57329892	     -0.38498772	      0.90764354	      0.32085249	      6.55551632	      6.21353463	     -1.77884701	    -20.60807385	     18.82376388	      2.16487751	      3.30138386	     30.77120060	     -2.47474517	     -6.59960173	    -67.45247154	      5.06254043	     -6.92523350	     -0.54487795	     -4.29245857	      0.45082982	      2.96968605
      0.68800000	     -3.67631203	      0.01346373	      4.33802371	     -0.37939342	      0.90862054	      0.32113073	      5.77038457	      5.99985895	     -1.59904173	    -19.88327110	     18.63713210	      2.26617424	      3.34314036	     30.98810723	     -2.19137722	     -6.81183522	    -66.11082406	      5.17897174	     -6.73847268	     -0.52404391	     -4.32092752	      0.18672266	      3.12836783
      0.69216667	     -3.58527762	      0.17538316	      4.11764148	     -0.37376193	      0.90958626	      0.32144713	      4.87829451	      5.87734241	     -1.38382518	    -19.04676201	     18.43800368	      2.30757847	      3.46080629	     31.14436930	     -2.00098055	     -6.99000352	    -64.76266731	      5.32003824	     -6.56688361	     -0.47588021	     -4.41465399	      0.00614128	      3.46387094
      0.69633333	     -3.52907441	      0.37417733	      3.88805108	     -0.36817480	      0.91043902	      0.32173181	      4.06513141	      5.69490968	     -1.21474837	    -18.29744070	     18.28354196	      2.39367942	      3.52701897	     31.30859343	     -1.76088838	     -7.16937025	    -63.33916326	      5.39709369	     -6.43002297	     -0.45122499	     -4.46853908	     -0.22285711	      3.65770336
      0.70050000	     -3.47645175	      0.54718232	      3.65600885	     -0.36261029	      0.91119894	      0.32202227	      3.25793787	      5.53621754	     -1.03990111	    -17.53583811	     18.08532711	      2.48569428	      3.60393853	     31.46740561	     -1.55104553	     -7.32977944	    -61.88428473	      5.46356263	     -6.30786835	     -0.42687467	     -4.52322269	     -0.41651361	      3.90441908
      0.70466667	     -3.43337009	      0.70770496	      3.41966989	     -0.35707112	      0.91185956	      0.32231075	      2.47560227	      5.38307576	     -0.87935332	    -16.79416243	     17.88973337	      2.57721249	      3.68103392	     31.62223019	     -1.35728867	     -7.48252180	    -60.38911548	      5.49831196	     -6.21355619	     -0.40783748	     -4.56350101	     -0.59805145	      4.14106576
      0.70883333	     -3.42537938	      0.87010934	      3.17304756	     -0.35156243	      0.91238950	      0.32258705	      1.76086219	      5.21482768	     -0.74295337	    -16.10636642	     17.66350347	      2.70032603	      3.73465475	     31.79605970	     -1.16350295	     -7.63597126	    -58.84688109	      5.49577978	     -6.13180745	     -0.39899741	     -4.56234595	     -0.77870682	      4.33180262
      0.71300000	     -3.37663460	      0.99371369	      2.94997335	     -0.34604374	      0.91287849	      0.32286142	      0.97533974	      5.09339891	     -0.59592866	    -15.35698989	     17.50611207	      2.79289757	      3.83042989	     31.92189696	     -1.00772416	     -7.74942959	    -57.29098682	      5.48136506	     -6.11967226	     -0.38961896	     -4.61310934	     -0.91632692	      4.61806921
      0.71716667	     -3.38980922	      1.12763797	      2.70212242	     -0.34057448	      0.91319609	      0.32313210	      0.30936759	      4.94297036	     -0.48736322	    -14.70768474	     17.29542885	      2.92766852	      3.88973769	     32.09276305	     -0.85069506	     -7.88457884	    -55.68596703	      5.41689872	     -6.08195884	     -0.38962593	     -4.58242729	     -1.06466027	      4.80506813
      0.72133333	     -3.36610080	      1.23287829	      2.47795051	     -0.33509017	      0.91347444	      0.32337659	     -0.42160130	      4.82540382	     -0.37574492	    -14.00398710	     17.15673105	      3.05637714	      3.99052351	     32.21543564	     -0.71511913	     -7.98010860	    -54.06361567	      5.33471928	     -6.13754462	     -0.39431644	     -4.60548591	     -1.18179953	      5.08458067
